<svg xmlns="http://www.w3.org/2000/svg" style="display: none;"><symbol id="Site" viewBox="0 0 58 58"><title>website</title><circle style="fill:#7383BF;stroke:#556080;stroke-width:2;stroke-linecap:round;stroke-miterlimit:10;" cx="29" cy="29" r="28"/><line style="fill:none;stroke:#556080;stroke-width:2;stroke-linecap:round;stroke-miterlimit:10;" x1="29" y1="57" x2="29" y2="1"/><path style="fill:none;stroke:#556080;stroke-width:2;stroke-linecap:round;stroke-miterlimit:10;" d="M29,1 c-0.214,0-0.426,0.011-0.639,0.016C20.213,7.616,15,17.697,15,29s5.213,21.384,13.361,27.984C28.574,56.989,28.786,57,29,57"/><path style="fill:none;stroke:#556080;stroke-width:2;stroke-linecap:round;stroke-miterlimit:10;" d="M8.698,9.728 C14.478,13.683,21.468,16,29,16s14.522-2.317,20.302-6.272"/><path style="fill:none;stroke:#556080;stroke-width:2;stroke-linecap:round;stroke-miterlimit:10;" d="M49.862,47.67 C43.975,43.475,36.779,41,29,41s-14.975,2.475-20.862,6.67"/><path style="fill:none;stroke:#556080;stroke-width:2;stroke-linecap:round;stroke-miterlimit:10;" d="M29,57 c0.214,0,0.426-0.011,0.639-0.016C37.787,50.384,43,40.303,43,29S37.787,7.616,29.639,1.016C29.426,1.011,29.214,1,29,1"/><line style="fill:none;stroke:#556080;stroke-width:2;stroke-linecap:round;stroke-miterlimit:10;" x1="1" y1="29" x2="57" y2="29"/></symbol><symbol id="plus" viewBox="0 0 50 50"><title>plus</title><circle style="fill:#43B05C;" cx="25" cy="25" r="25"/><line style="fill:none;stroke:#FFFFFF;stroke-width:2;stroke-linecap:round;stroke-linejoin:round;stroke-miterlimit:10;" x1="25" y1="13" x2="25" y2="38"/><line style="fill:none;stroke:#FFFFFF;stroke-width:2;stroke-linecap:round;stroke-linejoin:round;stroke-miterlimit:10;" x1="37.5" y1="25" x2="12.5" y2="25"/></symbol><symbol id="Podcast" viewBox="0 0 57 57"><title>podcast</title><path style="fill:none;stroke:#556080;stroke-width:2;stroke-linecap:round;stroke-miterlimit:10;" d="M43.5,28v6 c0,8.271-6.729,15-15,15s-15-6.729-15-15v-6"/><path style="fill:#4E3787;" d="M28.5,44L28.5,44c-5.5,0-10-4.5-10-10V10c0-5.5,4.5-10,10-10h0c5.5,0,10,4.5,10,10v24 C38.5,39.5,34,44,28.5,44z"/><line style="fill:none;stroke:#556080;stroke-width:2;stroke-linecap:round;stroke-miterlimit:10;" x1="28.5" y1="49" x2="28.5" y2="56"/><polyline style="fill:none;stroke:#556080;stroke-width:2;stroke-linecap:round;stroke-miterlimit:10;" points="34.5,56 28.5,56 22.5,56 "/><g> <circle style="fill:#DDB7DE;" cx="28.5" cy="3" r="1"/> <circle style="fill:#DDB7DE;" cx="25.5" cy="6" r="1"/> <circle style="fill:#DDB7DE;" cx="19.5" cy="12" r="1"/> <circle style="fill:#DDB7DE;" cx="25.5" cy="12" r="1"/> <circle style="fill:#DDB7DE;" cx="22.5" cy="9" r="1"/> <circle style="fill:#DDB7DE;" cx="28.5" cy="9" r="1"/> <circle style="fill:#DDB7DE;" cx="22.5" cy="15" r="1"/> <circle style="fill:#DDB7DE;" cx="28.5" cy="15" r="1"/> <circle style="fill:#DDB7DE;" cx="31.5" cy="6" r="1"/> <circle style="fill:#DDB7DE;" cx="31.5" cy="12" r="1"/> <circle style="fill:#DDB7DE;" cx="34.5" cy="9" r="1"/> <circle style="fill:#DDB7DE;" cx="34.5" cy="15" r="1"/> <circle style="fill:#DDB7DE;" cx="19.5" cy="18" r="1"/> <circle style="fill:#DDB7DE;" cx="25.5" cy="18" r="1"/> <circle style="fill:#DDB7DE;" cx="19.5" cy="24" r="1"/> <circle style="fill:#DDB7DE;" cx="25.5" cy="24" r="1"/> <circle style="fill:#DDB7DE;" cx="22.5" cy="21" r="1"/> <circle style="fill:#DDB7DE;" cx="28.5" cy="21" r="1"/> <circle style="fill:#DDB7DE;" cx="22.5" cy="27" r="1"/> <circle style="fill:#DDB7DE;" cx="28.5" cy="27" r="1"/> <circle style="fill:#DDB7DE;" cx="31.5" cy="18" r="1"/> <circle style="fill:#DDB7DE;" cx="31.5" cy="24" r="1"/> <circle style="fill:#DDB7DE;" cx="34.5" cy="21" r="1"/> <circle style="fill:#DDB7DE;" cx="34.5" cy="27" r="1"/> <circle style="fill:#DDB7DE;" cx="19.5" cy="30" r="1"/> <circle style="fill:#DDB7DE;" cx="25.5" cy="30" r="1"/> <circle style="fill:#DDB7DE;" cx="37.5" cy="12" r="1"/> <circle style="fill:#DDB7DE;" cx="37.5" cy="18" r="1"/> <circle style="fill:#DDB7DE;" cx="37.5" cy="24" r="1"/> <circle style="fill:#DDB7DE;" cx="37.5" cy="30" r="1"/> <circle style="fill:#DDB7DE;" cx="25.5" cy="36" r="1"/> <circle style="fill:#DDB7DE;" cx="22.5" cy="33" r="1"/> <circle style="fill:#DDB7DE;" cx="28.5" cy="33" r="1"/> <circle style="fill:#DDB7DE;" cx="22.5" cy="39" r="1"/> <circle style="fill:#DDB7DE;" cx="28.5" cy="39" r="1"/> <circle style="fill:#DDB7DE;" cx="31.5" cy="30" r="1"/> <circle style="fill:#DDB7DE;" cx="31.5" cy="36" r="1"/> <circle style="fill:#DDB7DE;" cx="34.5" cy="33" r="1"/> <circle style="fill:#DDB7DE;" cx="34.5" cy="39" r="1"/> <circle style="fill:#DDB7DE;" cx="25.5" cy="42" r="1"/> <circle style="fill:#DDB7DE;" cx="31.5" cy="42" r="1"/> </g></symbol><symbol id="link" viewBox="0 0 57.654 57.654"><title>link</title><path style="fill:none;stroke:#25AE88;stroke-width:2;stroke-linecap:round;stroke-miterlimit:10;" d="M28.827,28.827L28.827,28.827 c-4.276-4.276-4.276-11.273,0-15.55l9.071-9.071c4.276-4.276,11.273-4.276,15.549,0l0,0c4.276,4.276,4.276,11.273,0,15.549 l-9.071,9.071C40.101,33.103,33.103,33.103,28.827,28.827z"/><path style="fill:none;stroke:#25AE88;stroke-width:2;stroke-linecap:round;stroke-miterlimit:10;" d="M4.207,53.447L4.207,53.447 c-4.276-4.276-4.276-11.273,0-15.55l9.071-9.071c4.276-4.276,11.273-4.276,15.549,0l0,0c4.276,4.276,4.276,11.273,0,15.549 l-9.071,9.071C15.48,57.723,8.483,57.723,4.207,53.447z"/><line style="fill:none;stroke:#25AE88;stroke-width:2;stroke-linecap:round;stroke-miterlimit:10;" x1="38.158" y1="19.496" x2="19.496" y2="38.158"/><path style="fill:none;stroke:#25AE88;stroke-width:2;stroke-linecap:round;stroke-miterlimit:10;" d="M28.827,28.827L28.827,28.827 c-4.276-4.276-4.276-11.273,0-15.55l9.071-9.071c4.276-4.276,11.273-4.276,15.549,0l0,0c4.276,4.276,4.276,11.273,0,15.549 l-9.071,9.071C40.101,33.103,33.103,33.103,28.827,28.827z"/><path style="fill:none;stroke:#25AE88;stroke-width:2;stroke-linecap:round;stroke-miterlimit:10;" d="M4.207,53.447L4.207,53.447 c-4.276-4.276-4.276-11.273,0-15.55l9.071-9.071c4.276-4.276,11.273-4.276,15.549,0l0,0c4.276,4.276,4.276,11.273,0,15.549 l-9.071,9.071C15.48,57.723,8.483,57.723,4.207,53.447z"/><line style="fill:none;stroke:#25AE88;stroke-width:2;stroke-linecap:round;stroke-miterlimit:10;" x1="38.158" y1="19.496" x2="19.496" y2="38.158"/></symbol><symbol id="shapes" viewBox="0 0 58 58"><title>shapes</title><polygon style="fill:#EDEADA;" points="27.5,4 27.5,28 19.5,22 11.5,28 11.5,4 4.5,4 4.5,58 53.5,58 53.5,4 "/><g> <path style="fill:#CEC9AE;" d="M46.5,35h-35c-0.553,0-1,0.447-1,1s0.447,1,1,1h35c0.553,0,1-0.447,1-1S47.053,35,46.5,35z"/> <path style="fill:#CEC9AE;" d="M46.5,28h-13c-0.553,0-1,0.447-1,1s0.447,1,1,1h13c0.553,0,1-0.447,1-1S47.053,28,46.5,28z"/> <path style="fill:#CEC9AE;" d="M46.5,21h-13c-0.553,0-1,0.447-1,1s0.447,1,1,1h13c0.553,0,1-0.447,1-1S47.053,21,46.5,21z"/> <path style="fill:#CEC9AE;" d="M33.5,16h13c0.553,0,1-0.447,1-1s-0.447-1-1-1h-13c-0.553,0-1,0.447-1,1S32.947,16,33.5,16z"/> <path style="fill:#CEC9AE;" d="M46.5,47h-35c-0.553,0-1,0.447-1,1s0.447,1,1,1h35c0.553,0,1-0.447,1-1S47.053,47,46.5,47z"/> <path style="fill:#CEC9AE;" d="M11.5,43h14c0.553,0,1-0.447,1-1s-0.447-1-1-1h-14c-0.553,0-1,0.447-1,1S10.947,43,11.5,43z"/> <path style="fill:#CEC9AE;" d="M46.5,41h-13c-0.553,0-1,0.447-1,1s0.447,1,1,1h13c0.553,0,1-0.447,1-1S47.053,41,46.5,41z"/> <path style="fill:#CEC9AE;" d="M30.21,42.71c0.18-0.19,0.29-0.45,0.29-0.71c0-0.261-0.11-0.521-0.29-0.7 c-0.37-0.38-1.061-0.38-1.42-0.01c-0.181,0.189-0.29,0.449-0.29,0.71c0,0.26,0.109,0.52,0.29,0.71C28.979,42.89,29.229,43,29.5,43 C29.76,43,30.02,42.89,30.21,42.71z"/> </g><polygon style="fill:#D75A4A;" points="27.5,28 19.5,22 11.5,28 11.5,0 27.5,0 "/></symbol><symbol id="Book" viewBox="0 0 512 512"><title>book</title><path style="fill:#199172;" d="M422.861,449.123c0-30.495,9.782-62.859,22.133-70.279c0.746-0.449,0.377-1.581-0.503-1.581H134.353 c-30.163,0-58.664,16.977-70.422,44.76C44.502,467.905,77.665,512,121.122,512h331.156c0.898,0,1.24-1.177,0.449-1.599 C440.763,503.979,422.861,478.98,422.861,449.123"/><path style="fill:#25B99A;" d="M443.595,0H138.847c-44.508,0-80.6,36.092-80.6,80.6v341.576v26.947 c0-34.726,28.151-71.86,71.86-71.86h317.934c3.153,0,5.713-2.56,5.713-5.713V10.159C453.754,4.545,449.209,0,443.595,0"/><path style="fill:#EDEBDA;" d="M359.937,188.632h-208.15c-11.974,0-21.684-9.71-21.684-21.675v-62.832 c0-12.863,10.429-23.283,23.283-23.283h204.953c12.854,0,23.274,10.42,23.274,23.283v62.832 C381.612,178.922,371.91,188.632,359.937,188.632"/><g> <path style="fill:#CEC9AE;" d="M300.774,125.754h-80.842c-4.967,0-8.982-4.015-8.982-8.982c0-4.967,4.015-8.982,8.982-8.982 h80.842c4.967,0,8.982,4.015,8.982,8.982C309.756,121.739,305.741,125.754,300.774,125.754"/> <path style="fill:#CEC9AE;" d="M327.721,161.684H184.002c-4.967,0-8.982-4.015-8.982-8.982c0-4.967,4.015-8.982,8.982-8.982 h143.719c4.967,0,8.982,4.015,8.982,8.982C336.704,157.669,332.689,161.684,327.721,161.684"/> </g><g> <path style="fill:#25B99A;" d="M309.756,413.193c-4.967,0-8.982,4.015-8.982,8.982s4.015,8.982,8.982,8.982H423.95 c0.728-6.216,1.832-12.27,3.207-17.965H309.756z"/> <path style="fill:#25B99A;" d="M336.704,458.105c-4.967,0-8.982,4.015-8.982,8.982c0,4.967,4.015,8.982,8.982,8.982h91.109 c-2.021-5.605-3.539-11.596-4.303-17.965H336.704z"/> </g></symbol><symbol id="library" viewBox="0 0 512 512"><title>library</title><path style="fill:#8C5D37;" d="M0,464.442h512v-52.966H0V464.442z"/><path style="fill:#ECBA16;" d="M282.483,411.477h-256l10.178-16.967c10.037-16.728,10.037-37.614,0-54.343l-10.178-16.967h256 c24.373,0,44.138,19.765,44.138,44.138C326.621,391.712,306.856,411.477,282.483,411.477"/><path style="fill:#ED8A19;" d="M282.483,376.166H88.276c-4.882,0-8.828-3.955-8.828-8.828c0-4.873,3.946-8.828,8.828-8.828h194.207 c4.882,0,8.828,3.955,8.828,8.828C291.31,372.212,287.364,376.166,282.483,376.166"/><path style="fill:#A2D672;" d="M256,323.201H0l10.178-16.967c10.037-16.728,10.037-37.614,0-54.343L0,234.925h256 c24.373,0,44.138,19.765,44.138,44.138S280.373,323.201,256,323.201"/><path style="fill:#88C057;" d="M256,287.891H61.793c-4.882,0-8.828-3.955-8.828-8.828s3.946-8.828,8.828-8.828H256 c4.882,0,8.828,3.955,8.828,8.828S260.882,287.891,256,287.891"/><path style="fill:#25B99A;" d="M282.483,234.925h-256l10.178-16.967c10.037-16.728,10.037-37.614,0-54.343l-10.178-16.967h256 c24.373,0,44.138,19.765,44.138,44.138S306.856,234.925,282.483,234.925"/><path style="fill:#DD342E;" d="M381.015,47.558l91.392,341.071l-85.274,22.846L295.75,70.404L381.015,47.558z"/><path style="fill:#199172;" d="M282.483,199.615H88.276c-4.882,0-8.828-3.955-8.828-8.828c0-4.873,3.946-8.828,8.828-8.828h194.207 c4.882,0,8.828,3.955,8.828,8.828C291.31,195.66,287.364,199.615,282.483,199.615"/><g> <path style="fill:#B12621;" d="M403.863,132.825l-85.266,22.846l-9.145-34.11l85.274-22.846L403.863,132.825z"/> <path style="fill:#B12621;" d="M458.696,337.468l-85.266,22.846l-9.145-34.11l85.274-22.846L458.696,337.468z"/> <path style="fill:#B12621;" d="M397.775,289.511c-3.893,0-7.468-2.604-8.519-6.55l-27.41-102.321 c-1.262-4.714,1.536-9.551,6.241-10.814c4.705-1.271,9.551,1.536,10.805,6.241l27.418,102.329 c1.253,4.705-1.536,9.551-6.241,10.805C399.303,289.414,398.535,289.511,397.775,289.511"/> </g></symbol><symbol id="music" viewBox="0 0 57 57"><title>music</title><path style="fill:#FFD581;" d="M48,28c0-0.31,0.032-0.612,0.092-0.904C45.214,19.051,37.606,13.5,28.5,13.5 S11.786,19.051,8.908,27.096C8.968,27.388,9,27.69,9,28v14c0,0.059-0.015,0.115-0.018,0.173C12.047,49.97,19.615,55.5,28.5,55.5 c8.885,0,16.453-5.53,19.518-13.326C48.015,42.115,48,42.059,48,42V28z"/><path style="fill:#CB8252;" d="M29,51.5c-4.411,0-8-3.589-8-8c0-0.553,0.447-1,1-1s1,0.447,1,1c0,3.309,2.691,6,6,6s6-2.691,6-6 c0-0.553,0.447-1,1-1s1,0.447,1,1C37,47.911,33.411,51.5,29,51.5z"/><circle style="fill:#B27821;" cx="22" cy="36.5" r="2"/><circle style="fill:#B27821;" cx="36" cy="36.5" r="2"/><path style="fill:#AF8066;" d="M48.984,30.326c-1.919-10.856-10.215-18.15-20.643-18.15c-10.238,0-18.407,7.294-20.326,18.15 c-0.091,0.509,0.223,1.003,0.722,1.139c0.16,0.044,3.991,1.07,9.273,1.07c5.188,0,12.669-1.038,18.855-5.979 c0.16-0.131,0.247-0.058,0.304,0.025c1.412,2.104,3.776,5.626,7.791,5.626c1.093,0,2.251-0.267,3.442-0.792 C48.825,31.229,49.064,30.779,48.984,30.326z"/><path style="fill:#8697CB;" d="M4.5,46.5L4.5,46.5C2.025,46.5,0,44.475,0,42V28c0-2.475,2.025-4.5,4.5-4.5h0 C6.975,23.5,9,25.525,9,28v14C9,44.475,6.975,46.5,4.5,46.5z"/><path style="fill:#8697CB;" d="M52.5,46.5L52.5,46.5c-2.475,0-4.5-2.025-4.5-4.5V28c0-2.475,2.025-4.5,4.5-4.5h0 c2.475,0,4.5,2.025,4.5,4.5v14C57,44.475,54.975,46.5,52.5,46.5z"/><path style="fill:#556080;" d="M54,24.5h-2c0-12.364-9.663-21-23.5-21S5,12.136,5,24.5H3c0-13.327,10.725-23,25.5-23 S54,11.173,54,24.5z"/></symbol></svg>
